<?xml version="1.0" encoding="utf-8"?>
<!-- Generator: Adobe Illustrator 28.0.0, SVG Export Plug-In . SVG Version: 6.00 Build 0)  -->
<svg version="1.1" id="Layer_1" xmlns="http://www.w3.org/2000/svg" xmlns:xlink="http://www.w3.org/1999/xlink" x="0px" y="0px"
	 viewBox="0 0 1080 1080" style="enable-background:new 0 0 1080 1080;" xml:space="preserve">
<style type="text/css">
	.st0{fill:#FFFFFF;}
	.st1{fill:#4598AA;}
	.st2{fill:#2C7A90;}
	.st3{fill:#997FBB;}
	.st4{fill:#7A659F;}
	.st5{fill:#6C5D97;}
	.st6{fill:#F2D4E1;}
	.st7{fill:#D1A2C5;}
	.st8{fill:#9179B5;}
	.st9{fill:#595188;}
	.st10{fill:#76629D;}
	.st11{fill:none;stroke:#FFFFFF;stroke-width:2;stroke-linecap:round;stroke-linejoin:round;stroke-miterlimit:10;}
</style>
<g>
	<g>
		<g>
			<path class="st0" d="M493.27,521.91c0.43,0.42,0.85,0.84,1.28,1.26c36.69,45.65,72.59,90.3,109.25,135.92
				c-8.92,0-16.92,0.09-24.91-0.12c-0.99-0.03-2.07-1.51-2.87-2.52c-12.44-15.58-24.84-31.19-37.27-46.78
				c-2.57-3.22-5.21-6.39-8.24-10.1c-8.15,9.02-15.97,17.77-23.88,26.43c-9.53,10.44-19.1,20.83-28.75,31.16
				c-0.91,0.98-2.45,1.91-3.72,1.94c-7.1,0.19-14.22,0.09-23.08,0.09c22.92-25.4,44.86-49.72,67.12-74.39
				c-10.85-13.94-21.7-27.9-32.58-41.83c-3.27-4.19-7.05-8.05-9.85-12.53c-0.35-0.57-2-2.06-3.91-4.36
				c-1.55-1.88-2.73-3.48-3.45-4.52"/>
			<path class="st0" d="M136.21,516.51c5.25,0,10.04,0,15.41,0c0,15.14,0,30.13,0,46.67c8.11-9.55,17.63-11.99,28.12-10.76
				c7.77,0.9,14.49,4.3,19.82,10.27c13.01,14.59,13.3,39.02,0.23,52.8c-10.42,10.98-31.24,16.98-47.79,2.19
				c-0.15,0.25-0.44,0.5-0.44,0.75c0.04,6.72,0.05,6.72-6.51,6.69c-2.82-0.01-5.63,0-8.84,0
				C136.21,588.97,136.21,552.99,136.21,516.51z M151.76,589.14c-1,19.03,15.48,25.86,27.22,21.93
				c10.29-3.45,16.58-16.87,13.2-28.35c-3.55-12.03-12.79-17.76-24.94-15.46C157.75,569.06,151.78,577.5,151.76,589.14z"/>
			<path class="st0" d="M649.42,658.92c-5.74,0-10.51,0-15.66,0c0-35.07,0-69.88,0-105.13c4.73,0,9.44,0,14.71,0
				c0,2.68,0,5.4,0,9.88c8.98-10.45,19.48-12.78,30.91-10.95c8.82,1.42,16,6.12,21.22,13.5c9.53,13.47,9.28,37.35-3.58,50.05
				c-10.95,10.81-32.36,15.04-47.61,0.85C649.42,631.3,649.42,644.94,649.42,658.92z M649.3,590.04
				c-0.06,12.62,9.34,22.21,21.79,22.23c10.96,0.01,20.12-10.4,20.12-22.85c0-12.88-8.79-22.52-20.7-22.69
				C658.54,566.55,649.36,576.64,649.3,590.04z"/>
			<path class="st0" d="M539.84,563.63c1.76-2.24,2.87-3.88,4.2-5.31c14.85-15.91,29.67-31.87,44.72-47.59
				c1.69-1.76,4.73-2.93,7.22-3.1c6.55-0.43,13.15-0.14,21.33-0.14c-17.46,18.46-33.9,35.84-50.5,53.38
				c4.48,5.5,8.55,10.49,13.02,15.96c5-6.06,9.95-11.56,14.3-17.5c3.11-4.25,6.43-6.69,11.99-6.02c4.19,0.51,8.49,0.1,13.94,0.1
				c-10.1,12.07-19.4,23.19-29.26,34.98c9.16,10.54,18.33,21.09,28.56,32.86c-6.36,0-11.43-0.38-16.42,0.1
				c-5.49,0.53-9.18-1.23-12.71-5.58c-12.02-14.81-24.39-29.35-36.86-43.78c-1.85-2.15-4.97-3.2-7.52-4.75
				C544.07,566.15,542.25,565.07,539.84,563.63z"/>
			<path class="st0" d="M821.59,603.41c3.71,3.26,6.67,5.86,9.84,8.65c-9.57,12.14-22.05,16.03-36.38,13.9
				c-15.09-2.25-24.91-11.3-28.66-26.03c-4.93-19.4,3.77-38.47,20.71-45.04c23.57-9.14,47.13,4.71,47.05,31.13
				c-0.01,2.47,0,4.94,0,7.98c-17.8,0-35.18,0-53.11,0c0.6,6.83,3.62,11.7,8.62,14.83C801.54,616.24,812.07,612.44,821.59,603.41z
				 M818.69,582.14c-2.15-10.9-9.34-17.24-18.77-16.64c-7.66,0.49-17.85,6.28-17.92,16.64
				C794.11,582.14,806.22,582.14,818.69,582.14z"/>
			<path class="st0" d="M417.33,625.01c-5.14,0-9.76,0-14.78,0c0-2.29,0-4.53,0-7.27c-0.91,0.45-1.52,0.58-1.89,0.95
				c-8.31,8.39-18.42,8.89-29.1,6.53c-9.5-2.1-14.36-8.75-15.59-17.81c-1.15-8.43,1.74-15.8,8.94-20.82
				c8.82-6.14,18.79-7.82,29.33-6.77c2.27,0.23,4.54,0.48,6.8,0.72c1.07-8.03-3.78-13.5-12.23-14.28
				c-5.85-0.54-11.33,0.67-16.07,4.01c-4.1,2.89-6.87,1.77-9.45-1.86c-1.14-1.61-2.41-3.13-3.85-4.99
				c5.4-5.29,11.58-8.78,18.86-10.29c7.96-1.65,16-1.61,23.48,1.49c9.99,4.15,15.13,12.46,15.43,23.04
				C417.66,593.26,417.33,608.88,417.33,625.01z M401.66,596.22c-0.2-0.42-0.62-3.08-1.8-3.47c-8.03-2.7-19.09-1.27-25.2,4.43
				c-4.51,4.21-3.92,10.78,1.38,13.9c5.77,3.39,11.75,2.67,17.48-0.28C398.79,608.09,401.65,603.74,401.66,596.22z"/>
			<path class="st0" d="M263.98,617.43c-8.59,9.06-18.63,10.38-29.07,8.28c-10.69-2.14-17.23-10.92-17.16-21.36
				c0.08-10.87,7.61-20.85,18.48-22.85c7.05-1.3,14.4-0.99,21.62-1.36c1.79-0.09,3.59-0.01,5.36-0.01
				c0.84-8.12-4.18-13.28-13.06-13.88c-7.9-0.53-14.44,2.69-21.2,7.61c-1.03-1.31-1.95-2.69-3.08-3.87
				c-5.91-6.2-5.92-6.8,1.18-11.29c9.38-5.93,19.77-7.82,30.54-6.04c14.43,2.38,22.2,13.34,21.81,28.6
				c-0.34,13.28-0.15,26.58,0.11,39.87c0.06,3.16-0.8,4.26-3.82,4.05c-1.82-0.13-3.66-0.06-5.48-0.04
				C263.7,625.2,263.7,625.21,263.98,617.43z M263.68,595.81c-0.15-0.29-0.58-2.67-1.86-3.29c-6.78-3.33-20.76-0.2-25.83,5.42
				c-3.53,3.91-3.01,10.49,1.29,13.08c5.75,3.45,11.81,2.76,17.56,0.07C260.5,608.44,263.82,603.95,263.68,595.81z"/>
			<path class="st0" d="M326.19,567.36c-12,0-22.9,0-34.15,0c0-4.65,0-8.88,0-13.56c17.4,0,34.91,0,52.73,0
				c0.78,7.24,0.88,13.71-4.78,20.06c-10.45,11.72-19.82,24.42-30.1,37.3c13,0,25.49,0,38.36,0c0,4.77,0,9.01,0,13.66
				c-18.9,0-37.9,0-57.23,0c-0.36-7.12-0.9-13.44,4.79-19.71C306.35,593.45,315.62,580.65,326.19,567.36z"/>
			<path class="st0" d="M898.81,563.57c-3.6,3.39-6.82,6.41-9.96,9.37c-3.86-2.08-7.26-4.63-11.08-5.75
				c-3.5-1.03-7.61-1.21-11.15-0.42c-2.14,0.48-5.05,3.45-5.15,5.43c-0.1,2.04,2.34,5.24,4.44,6.15c4.49,1.95,9.45,2.84,14.26,3.99
				c12.46,2.97,19.02,10.67,18.89,22.1c-0.08,7.16-3.85,12.35-9.17,16.29c-13.74,10.18-37.07,6.45-47.79-7.7
				c1.61-1.69,3.34-3.4,4.96-5.21c3.24-3.64,5.92-4.56,9.97-0.31c5.23,5.49,12.52,5.83,19.56,4.51c3.44-0.65,6.33-2.86,6.54-7.1
				c0.22-4.36-2.59-6.35-6.07-7.44c-5.19-1.63-10.57-2.68-15.76-4.32c-13.54-4.27-19.54-15.96-14.11-27.81
				c3.49-7.62,10.45-10.83,18.18-12.34C877.96,550.56,888.97,553.61,898.81,563.57z"/>
			<path class="st0" d="M961.54,563.86c-3.23,3.44-6.27,6.67-9.64,10.26c-5.63-5.35-11.43-8.89-18.97-7.98
				c-3.8,0.45-7.75,1.15-8.26,5.6c-0.53,4.59,2.96,6.62,6.93,7.7c4.79,1.3,9.65,2.38,14.36,3.91c11.76,3.83,16.28,10,16.04,21.42
				c-0.18,8.56-7.71,17.97-17.17,20.22c-12.64,3.01-24.66,1.67-35.07-7.12c-4.61-3.89-4.83-4.79-0.7-8.97
				c1.84-1.86,4.12-3.27,6.51-5.12c4.72,5.42,10.29,8.97,17.31,8.9c3.34-0.04,7.05-0.63,9.92-2.19c5.31-2.89,4.97-9.73-0.58-12.05
				c-5.29-2.21-10.98-3.46-16.53-5.05c-10.57-3.02-16.49-9.52-16.62-18.37c-0.16-10.46,5.42-17.75,16.1-21.06
				C938.82,549.71,953.92,553.69,961.54,563.86z"/>
			<path class="st0" d="M431.69,553.52c5.58,0,10.37,0,15.68,0c0,2.82,0,5.52,0,9.92c6.04-8.01,12.9-11.14,21.33-11.19
				c3.55-0.02,5.17,0.83,5.03,4.7c-0.14,3.58,0.44,7.18,0.74,11.31c-3.15,0-5.76-0.03-8.37,0.01c-10.15,0.15-17.47,7.33-17.6,17.53
				c-0.15,11.64-0.2,23.27-0.02,34.91c0.06,3.48-0.87,4.59-4.45,4.54c-12.42-0.15-12.4-0.02-12.38-12.53
				c0.03-18.29,0.04-36.58,0.05-54.86C431.69,556.56,431.69,555.28,431.69,553.52z"/>
			<path class="st0" d="M735.16,624.91c-5.48,0-10.41,0-15.61,0c0-23.81,0-47.36,0-71.23c5.06,0,9.97,0,15.42,0
				c0.13,2.76,0.26,5.62,0.46,9.76c5.82-8.14,13.12-11.13,21.86-11.15c3.04-0.01,4.69,0.71,4.47,4.18
				c-0.23,3.63-0.05,7.29-0.05,11.76c-1.57,0-3.32,0.11-5.05-0.02c-13.3-1.02-21.08,7.45-21.32,20.99
				c-0.19,10.65,0.01,21.31,0.02,31.96C735.35,622.3,735.24,623.43,735.16,624.91z"/>
		</g>
		<path class="st0" d="M558.32,682.5c-1.24,7.38-2.36,15.55-4.09,23.6c-0.68,3.18-2.49,6.3-6.69,6.26
			c-4.01-0.03-5.25-3.07-6.31-6.06c-3.56-10.05-3.75-20.52-3.15-30.97c0.28-4.89,1.23-9.83,2.56-14.56c1-3.52,3.68-5.96,7.83-5.66
			c4.17,0.3,6.17,3.22,6.83,6.78C556.52,668.37,557.24,674.94,558.32,682.5z"/>
	</g>
	<g>
		<path class="st1" d="M365.08,438.75c51.99,17.39,97.74,45.99,142.12,77.97c-2.27-4.28-4.59-8.54-6.81-12.85
			c-23.46-45.53-48.88-89.93-79.31-131.19c-15.75-21.35-32.32-42.16-49.6-62.3c-18.07-21.06-36.85-41.57-56.37-61.29
			c-23.62-23.88-49.13-45.74-78.49-62.46c-8.53-4.86-17.88-8.42-27.12-11.87c-12.54-4.68-23.88,5.72-19.08,20.58
			c3.66,11.34,9.15,22.36,15.43,32.54c20.68,33.51,34.71,69.4,40.49,108.34c2.33,15.72,3.27,31.63,5.28,47.4
			c2.92,22.95,6.08,45.86,16.28,67.1c13.15,27.4,36.01,42.9,63.71,52.63c23.49,8.25,47.72,13.18,72.4,16.05c14,1.63,28,3.23,42,4.8
			c1.62,0.18,3.28,0.02,5.85,0.02C425.9,492.02,399,461.89,365.08,438.75z"/>
		<path class="st2" d="M251.62,383.62c2.92,22.95,6.08,45.86,16.28,67.1c13.15,27.4,36.01,42.9,63.71,52.63
			c23.49,8.25,47.72,13.18,72.4,16.05c14,1.63,28,3.23,42,4.8c1.62,0.18,3.28,0.02,5.85,0.02c-25.95-32.2-52.86-62.33-86.78-85.46
			c-12.88-10.25-25.46-15.95-37-18.97c-21.96-5.75-34.2-0.25-50.54-8.44C265.34,405.22,257.2,394.65,251.62,383.62z"/>
	</g>
	<g>
		<path class="st3" d="M698.6,438.75c-51.99,17.39-97.74,45.99-142.12,77.97c2.27-4.28,4.59-8.54,6.81-12.85
			c23.46-45.53,48.88-89.93,79.31-131.19c15.75-21.35,32.32-42.16,49.6-62.3c18.07-21.06,36.85-41.57,56.37-61.29
			c23.62-23.88,49.13-45.74,78.49-62.46c8.53-4.86,17.88-8.42,27.12-11.87c12.54-4.68,23.88,5.72,19.08,20.58
			c-3.66,11.34-9.15,22.36-15.43,32.54c-20.68,33.51-34.71,69.4-40.49,108.34c-2.33,15.72-3.27,31.63-5.28,47.4
			c-2.92,22.95-6.08,45.86-16.28,67.1c-13.15,27.4-36.01,42.9-63.71,52.63c-23.49,8.25-47.72,13.18-72.4,16.05
			c-14,1.63-28,3.23-42,4.8c-1.62,0.18-3.28,0.02-5.85,0.02C637.77,492.02,664.68,461.89,698.6,438.75z"/>
		<path class="st4" d="M812.03,384.64c-2.92,22.95-6.08,45.86-16.28,67.1c-13.15,27.4-36.01,42.9-63.71,52.63
			c-23.49,8.25-47.72,13.18-72.4,16.05c-14,1.63-28,3.23-42,4.8c-1.62,0.18-3.28,0.02-5.85,0.02c25.95-32.2,52.86-62.33,86.78-85.46
			c12.88-10.25,25.46-15.95,37-18.97c21.96-5.75,34.2-0.25,50.54-8.44C798.31,406.24,806.44,395.67,812.03,384.64z"/>
	</g>
	<path class="st5" d="M343.53,868.75"/>
	<path class="st5" d="M342.4,907.06"/>
	<g>
		<path class="st6" d="M462.54,674.4c-2.49,11.55-4.97,23.1-7.46,34.66c0.31,0.22,0.61,0.43,0.92,0.65
			c19.74-16.16,39.49-32.32,60.44-49.47c-1.59,5.24-2.73,9.17-3.98,13.05c-13.86,42.99-31.86,84-58.2,120.97
			c-9.29,13.05-19.47,25.46-33.01,34.27c-7.25,4.72-15.17,9.35-23.44,11.37c-18.67,4.55-29.75,16.16-36.17,33.43
			c-2.99,8.05-5.91,16.14-9.33,24.01c-1.9,4.36-4.4,8.62-9.89,9.64c-8.68,1.62-15.3-5.19-11.91-13.29
			c3.62-8.64,8.74-16.65,13.04-25.02c4.44-8.65,9.46-17.12,12.84-26.19c5.3-14.19,1.62-28.02-3.97-41.46
			c-4.83-11.6-9.14-23.26-10.02-36.08c-1.07-15.58,3.5-29.11,13.03-41.08c16.15-20.29,37.77-32.66,61.95-40.41
			c14.37-4.61,29.35-7.31,44.06-10.87C461.8,673.19,462.17,673.8,462.54,674.4z"/>
		<path class="st7" d="M454.94,709.75c0.35,0.01,0.7,0.03,1.05,0.04c19.74-16.16,39.49-32.32,60.44-49.47
			c-1.59,5.24-2.73,9.17-3.98,13.05c-13.86,42.99-31.86,84-58.2,120.97c-9.29,13.05-19.47,25.46-33.01,34.27
			c-7.25,4.72-15.17,9.35-23.44,11.37c-18.67,4.55-29.75,16.16-36.17,33.43c-2.99,8.05-5.91,16.14-9.33,24.01
			c-1.9,4.36-4.4,8.62-9.89,9.64c-8.68,1.62-15.3-5.19-11.91-13.29c3.8-9.07,6.76-14.03,13.04-25.02
			c3.19-5.58,5.51-10.32,7.02-13.39c2.74-5.62,4.68-9.6,5.83-12.8c4.72-13.19,1.61-28.78-2.79-38.34
			c-1.36-2.94-3.95-7.69-5.97-14.48c-0.54-1.8-2.29-7.94-2.29-7.94l0,0c0,0,16.14-11.57,30.9-22.21
			c18.46-13.32,15.01-10.95,22.19-16.07c24.15-17.19,32.36-21.99,39.06-25.53C444.85,714.1,451.05,711.37,454.94,709.75z"/>
		<path class="st5" d="M455.07,709.13c20.45-16.27,40.9-32.55,61.36-48.82c-1.59,5.24-2.73,9.17-3.98,13.05
			c-13.86,42.99-31.86,84-58.2,120.97c-9.29,13.05-19.47,25.46-33.01,34.27c9.25-26.98,17.98-55.74,25.82-86.24
			C449.95,731.13,452.62,720.04,455.07,709.13z"/>
	</g>
	<g>
		<path class="st8" d="M580.02,666.34c18.28,14.61,35.95,28.73,54.31,43.41c-2.53-12.58-4.83-24.03-7.25-36.08
			c17.45,1.4,34.11,4.08,50.28,9.46c22.99,7.63,43.74,18.96,60.31,37.02c7.35,8.02,13.04,17.1,15.52,27.84
			c2.93,12.71,0.59,25.01-3.61,37.03c-2.93,8.4-6.41,16.62-9.27,25.05c-5.69,16.78-2.77,32.61,5.92,47.66
			c5.55,9.61,11.14,19.19,16.62,28.84c1.05,1.85,1.75,3.93,2.46,5.95c2.08,5.94,0.27,11.47-4.41,13.74
			c-4.69,2.28-11.77,0.63-14.39-4.35c-3.9-7.43-6.91-15.32-10.37-22.97c-2.93-6.47-5.51-13.15-9.07-19.27
			c-4.95-8.51-12.62-14.46-22.19-16.48c-25.17-5.31-43.38-20.69-59.05-39.75c-30.49-37.06-48.43-80.43-62.37-125.75
			C582.36,674.12,581.29,670.52,580.02,666.34z"/>
		<path class="st9" d="M642,715.67c-20.66-16.44-41.32-32.89-61.98-49.33c0.86,3.17,2.25,8.22,4.12,14.36
			c5.05,16.59,20.4,63.68,50.85,108.59c5.89,8.68,12.48,17.49,22.21,26.73c8.33,7.91,16.18,13.51,21.9,17.19
			c-10.32-25.65-20.11-53.82-28.63-84.41C647.33,737.52,644.52,726.47,642,715.67z"/>
		<path class="st10" d="M634.33,709.75c95.77,51.2,116.16,72.09,113.19,80.98c-0.69,2.06-4.27,8.35-7.2,19.35
			c-1.18,4.43-2.84,10.18-2.93,16.6c-0.15,10.73,3.08,21.07,8.85,31.07c5.55,9.61,11.14,19.19,16.62,28.84
			c1.05,1.85,1.75,3.93,2.46,5.95c2.08,5.94,0.27,11.47-4.41,13.74c-4.69,2.28-11.77,0.63-14.39-4.35
			c-3.9-7.43-6.91-15.32-10.37-22.97c-2.93-6.47-5.51-13.15-9.07-19.27c-3.5-6.01-8.35-10.74-14.27-13.72
			c-3.17-1.6-5.62-2.16-7.92-2.76c0,0-6.74-1.76-25.78-9.99C666.54,827.78,648.6,777.56,634.33,709.75z"/>
	</g>
	<path class="st11" d="M338.18,413.35c11.62,9.09,28.94,18.99,63.12,38.41c38.94,22.12,36.54,20.17,50.11,28.2
		c16.23,9.61,38.41,24.39,53.5,35.33c4,2.79-0.47-2.64-2.04-5.08c-2.17-3.36-3.12-4.7-3.77-5.55c0,0-0.66-0.87-1.36-1.73
		c-39.74-48.84-76.05-82.37-76.05-82.37c-43.56-40.23-87.61-80.91-105-70c-8.12,5.1-8.45,20.2-6.92,28.52
		C310.81,384.79,314.04,394.47,338.18,413.35z"/>
	<path class="st11" d="M726.86,412.43c-11.62,9.09-28.94,18.99-63.12,38.41c-38.94,22.12-36.54,20.17-50.11,28.2
		c-16.23,9.61-38.41,24.39-53.5,35.33c-4,2.79,0.47-2.64,2.04-5.08c2.17-3.36,3.12-4.7,3.77-5.55c0,0,0.66-0.87,1.36-1.73
		c39.74-48.84,76.05-82.37,76.05-82.37c43.56-40.23,87.61-80.91,105-70c8.12,5.1,8.45,20.2,6.92,28.52
		C754.23,383.86,751,393.54,726.86,412.43z"/>
</g>
</svg>
